<?xml version="1.0" encoding="UTF-8"?>
<svg id="Layer_1" xmlns="http://www.w3.org/2000/svg" version="1.1" viewBox="0 0 400 120">
  <!-- Generator: Adobe Illustrator 29.1.0, SVG Export Plug-In . SVG Version: 2.1.0 Build 142)  -->
  <path id="Path_1086" d="M10.2,66.4c5.2-5.2,13.9-5.2,19.1,0,5.2,5.2,5.2,13.9,0,19.1s-13.9,5.2-19.1,0h0c-5.2-5.2-5.2-13.9,0-19.1"/>
  <path id="Path_1087" d="M51.7,66.4c5.2-5.2,13.9-5.2,19.1,0,5.2,5.2,5.2,13.9,0,19.1s-13.9,5.2-19.1,0c-5.2-5.2-5.2-13.9,0-19.1"/>
  <path id="Path_1085" d="M10.2,24.9c5.2-5.2,13.9-5.2,19.1,0s5.2,13.9,0,19.1-13.9,5.2-19.1,0c-5.2-5.2-5.2-13.9,0-19.1"/>
  <path id="Line_295" d="M69.5,57.1H11.3c-1.1,0-1.9-.8-1.9-1.6s.8-1.9,1.9-1.9h58.2c1.1,0,1.9.8,1.9,1.6h0c0,1.1-.8,1.9-1.9,1.6h0v.3Z"/>
  <path id="Line_295-2" d="M38.6,84.4V26c0-1.1.8-1.9,1.6-1.9h0c1.1,0,1.9.8,1.6,1.9h0v58.2c0,1.1-.8,1.9-1.6,1.9h0c-1.1,0-1.9-.8-1.9-1.9h0l.3.3h0Z"/>
  <g>
    <path d="M108.2,88.8h-17.4l.2-1.3.4-.3c.6,0,1.2,0,2,0,.8,0,1.3-.2,1.8-.5.4-.3.7-.7,1.1-1.3.3-.6.6-1.5.7-2.8v-30.6c0-1.2,0-2.4,0-3.6,0-1.2-.3-2.1-.7-2.7-.4-.6-.7-1-1.1-1.4-.4-.2-.9-.4-1.3-.5-.5,0-1.3-.2-2.5-.2l-.4-.3-.2-1.3v-.3h1.5c.5,0,1.1,0,1.7,0,.6,0,1.2,0,1.8,0h11.4c3.2,0,5.9.3,8.1.9,2.2.6,4,1.5,5.4,2.6s2.4,2.5,3,4.1,1,3.3,1,5.2c0,2.7-.6,5-1.7,6.8s-2.6,3.2-4.4,4.2c-1.8,1-3.8,1.7-6,2.1s-4.3.6-6.4.6h-4v11.5c0,1,0,1.8,0,2.3,0,1.4.3,2.3.7,2.9.4.5.7.9,1,1.2.4.2.9.4,1.3.5s1.3.2,2.5.2l.3.3.2,1.3h0v.3ZM108.6,65.4c4,0,6.8-.9,8.5-2.7s2.6-4.3,2.6-7.5-1-5.7-2.9-7.3c-2-1.6-4.7-2.4-8.1-2.4h-6.2c0,1.4-.2,2.5-.2,3.5s0,1.8,0,2.5v12.8c0,.4.2.6.4.8.2.2.5.3.8.3h5.3-.1Z"/>
    <path d="M157.2,82.4c-1.2,2-2.8,3.6-4.7,4.9s-4.3,2-7.1,2-2.7-.2-3.9-.5c-1.3-.3-2.4-.8-3.5-1.5s-2-1.7-2.7-2.8c-.8-1.2-1.3-2.7-1.6-4.5-.2-1.2-.3-2.5-.3-3.9v-15c0-.5-.1-1-.4-1.4-.2-.4-.4-.7-.6-.9-.5-.5-1.1-.8-1.8-1-.7,0-1.4-.2-2.2-.2l-.2-.3v-1l.2-.3h4.3c1.2,0,2.3,0,3.2-.2l2.5-.4.4.6c0,.2-.2.5-.2,1s0,1-.1,1.6v13.6c0,1,0,2.2.1,3.5,0,1.3.2,2.4.5,3.4.5,2.2,1.4,3.9,2.9,5s3.2,1.6,5.1,1.6,2.8-.3,4-.9,2.3-1.3,3.2-2.2,1.7-1.8,2.3-2.7c.6-1,1-1.9,1.2-2.7v-14.9c0-.4,0-.9-.1-1.3,0-.5-.2-1-.4-1.4s-.3-.7-.5-.8c-.5-.6-1.1-.9-1.8-1s-1.4-.2-2.2-.2l-.3-.3v-1l.3-.3h4.3c1.2,0,2.3,0,3.1-.2l2.5-.4.4.6c0,.2-.2.5-.2,1s0,1-.1,1.6v24.2c0,1.1.2,1.9.4,2.4s.4.9.7,1.1c.4.4.9.6,1.7.7.7,0,1.5,0,2.2,0l.3.3v1c.1,0,0,.3,0,.3-.9,0-1.8-.2-2.8-.2h-2.9c-1.8,0-3.4,0-4.9,0l-.4-.7c.1-.6.3-1.4.5-2.4s.3-2,.4-3.1h-.8Z"/>
    <path d="M172.9,63.7l.6-7.3.2-.4h24.1c.9,0,1.6,0,2.2-.2l.4.6-.2,1.1c-.6.6-1.4,1.6-2.4,2.8-1,1.3-2,2.7-3.2,4.3s-2.4,3.4-3.7,5.3-2.5,3.7-3.7,5.6c-1.2,1.8-2.2,3.6-3.3,5.3-1,1.7-1.8,3.1-2.5,4.4h.3c0,0,3.6,0,3.6,0h6.7c1.6,0,2.9-.2,3.8-.5.9-.4,1.6-.9,2-1.7.4-.8.9-1.8,1.3-3.1l.2-.3h1.6l-1.1,8.3-.4.7h-25.3c-.7,0-1.2,0-1.6,0l-.5-.6v-1c.7-.7,1.5-1.7,2.6-3s2.2-2.8,3.4-4.5,2.5-3.5,3.8-5.4,2.5-3.8,3.7-5.7c1.2-1.9,2.2-3.6,3.1-5.3.9-1.7,1.6-3.1,2.1-4.3l-.3-.3h-6.7c-1.8,0-3.3,0-4.4.2-1.1.2-1.9.5-2.5.9s-1,.9-1.2,1.5-.5,1.4-.6,2.3l-.3.3h-1.2l-.5-.4v.2Z"/>
    <path d="M207.5,63.7l.6-7.3.2-.4h24.1c.9,0,1.6,0,2.2-.2l.4.6-.2,1.1c-.6.6-1.4,1.6-2.4,2.8-1,1.3-2,2.7-3.2,4.3s-2.4,3.4-3.7,5.3-2.5,3.7-3.7,5.6-2.2,3.6-3.3,5.3c-1,1.7-1.8,3.1-2.5,4.4h.3c0,0,3.6,0,3.6,0h6.7c1.6,0,2.9-.2,3.8-.5.9-.4,1.6-.9,2-1.7.4-.8.9-1.8,1.3-3.1l.2-.3h1.6l-1.1,8.3-.4.7h-25.3c-.7,0-1.2,0-1.6,0l-.5-.6v-1c.7-.7,1.5-1.7,2.6-3s2.2-2.8,3.4-4.5,2.5-3.5,3.8-5.4,2.5-3.8,3.7-5.7c1.2-1.9,2.2-3.6,3.1-5.3.9-1.7,1.6-3.1,2.1-4.3l-.3-.3h-6.7c-1.8,0-3.3,0-4.4.2-1.1.2-1.9.5-2.5.9s-1,.9-1.2,1.5-.5,1.4-.6,2.3l-.3.3h-1.2l-.5-.4v.2Z"/>
    <path d="M240.5,36.9l.3-.3h4.3c1.2,0,2.3,0,3.2-.2l2.6-.4.4.6c0,.2-.2.5-.2,1s0,1-.1,1.6c0,.6,0,1.1-.1,1.6v1.2c0,.8,0,1.5-.1,2.1v36.5c0,.7,0,1.4.1,2.3,0,1,.2,1.7.3,2.2s.4.9.7,1.2c.4.3.9.5,1.6.6.7,0,1.4,0,2.1,0l.4.4v.9c.1,0,0,.3,0,.3h-15.6v-1.1l.3-.3c.8,0,1.5,0,2.2,0,.7,0,1.3-.3,1.7-.7.4-.3.6-.8.7-1.3.1-.5.2-1.3.3-2.2,0-.6,0-1.2.1-1.8v-37.3c0-.8,0-1.5-.1-2.3,0-.5-.2-1-.4-1.3-.2-.4-.4-.7-.5-.9-.5-.5-1.1-.9-1.8-1s-1.4-.2-2.2-.2l-.3-.3v-.9h.1Z"/>
    <path d="M291.9,69.5l-1.1.5h-24.2v1.9c0,1.8.3,3.5.8,5.2.5,1.6,1.3,3.1,2.5,4.3,1.1,1.2,2.5,2.2,4.3,3s3.9,1.1,6.4,1.1,3-.2,4.7-.5,3.2-.9,4.7-1.7l.7.4v1.3l-.7.8c-1.1.9-2.7,1.7-4.8,2.5-2.1.7-4.4,1.1-7,1.1s-4.8-.4-6.9-1.2c-2.1-.8-3.8-2-5.3-3.5s-2.7-3.3-3.5-5.4-1.2-4.4-1.2-7,.4-5,1.3-7.1,2-4,3.5-5.5,3.2-2.7,5.3-3.6c2-.9,4.2-1.3,6.5-1.3s2.6.2,4.2.5c1.5.3,3,1,4.4,1.9s2.7,2.2,3.8,3.9c1.1,1.7,1.9,3.9,2.3,6.6l-.5,1.8h-.2ZM277.7,58c-1.5,0-2.9.2-4.1.7s-2.3,1.1-3.2,1.9c-.9.8-1.7,1.8-2.3,2.8-.6,1.1-1,2.2-1.2,3.4h17.8c.6,0,1-.2,1.2-.5.2-.3.3-.6.3-1v-.8c0-.2-.1-.5-.2-.7-.5-1.8-1.5-3.3-2.9-4.3s-3.2-1.6-5.4-1.6h0Z"/>
    <path d="M356.7,88.8h-17.5l.2-1.3.3-.3c.8,0,1.5,0,2.2,0,.7,0,1.2-.3,1.6-.6.3-.3.7-.8,1-1.3s.5-1.4.5-2.8v-2.9c0-.7,0-1.5-.1-2.4,0-.9-.1-2.1-.2-3.6-.4-5-.7-8.9-.9-11.9-.2-3-.4-5.3-.5-6.9-.1-1.7-.2-2.8-.3-3.6,0-.7-.1-1.3-.2-1.8-.3.9-.9,2.2-1.6,3.9-.7,1.8-1.5,3.8-2.5,6.1-.9,2.3-1.9,4.7-2.9,7.4-1,2.6-2.1,5.2-3.1,7.7-1,2.6-2,5-2.9,7.2-.9,2.3-1.7,4.2-2.4,5.8h-3.3l-14.2-38.1c0,.5,0,1-.1,1.5,0,.5,0,1.1-.1,1.9,0,.7-.1,1.6-.2,2.6,0,1-.2,2.2-.2,3.6l-1,13.1c-.1,1.6-.2,2.9-.3,4,0,1,0,1.9-.1,2.7v3.5c0,1.3.2,2.2.5,2.8.3.5.6.9,1,1.3.4.3.8.5,1.3.6.5,0,1.1,0,1.9,0l.3.3.2,1.3v.3h-16.5l.2-1.3.4-.3c.7,0,1.4,0,2.1,0,.7,0,1.2-.3,1.7-.6.4-.3.8-.8,1.2-1.3.4-.5.7-1.4.9-2.8,0-.3,0-.7.1-1.2,0-.4.1-1,.2-1.7,0-.7.2-1.5.2-2.4s.2-2.1.3-3.6l1-14.4c.1-1.7.2-3.1.3-4.2,0-1.1.1-2.1.1-2.9v-3.8c0-1.3-.2-2.3-.6-2.8s-.8-1-1.2-1.2c-.4-.3-1-.5-1.6-.6-.7,0-1.4,0-2.1,0l-.4-.3-.2-1.3h13.8l.4.2c0,.6.2,1.4.5,2.5.3,1,.7,2.2,1.1,3.4.4,1.3.9,2.6,1.5,4.1.5,1.4,1,2.9,1.6,4.3l4.8,13.1c.8,2.3,1.5,4.2,2.2,5.8.7,1.6,1.3,3,1.8,4.2.1-.2.5-1.1,1.2-2.7s1.5-3.6,2.5-5.9,2-4.9,3.1-7.7,2.1-5.5,3.1-8.2,1.8-5.1,2.6-7.4c.7-2.3,1.2-4.1,1.3-5.4l.4-.3h13.1l-.2,1.3-.4.3c-.8,0-1.5,0-2.2,0-.7,0-1.2.3-1.6.6s-.8.7-1.2,1.3c-.4.6-.6,1.5-.6,2.8v3.8c0,.8,0,1.7.1,2.8,0,1.1.2,2.5.3,4.2l.9,13.1c.1,1.7.2,3.1.3,4.2s.1,2,.2,2.7c0,.7.1,1.3.2,1.8s.2,1,.2,1.6c.2,1.3.5,2.2.9,2.8.4.5.8.9,1.1,1.3.4.3,1,.5,1.7.6.7,0,1.4,0,2.2,0l.4.3.2,1.3h0v-.2Z"/>
    <path d="M391.4,69.5l-1.1.5h-24.2v1.9c0,1.8.3,3.5.8,5.2.5,1.6,1.3,3.1,2.5,4.3,1.1,1.2,2.5,2.2,4.3,3s3.9,1.1,6.4,1.1,3-.2,4.7-.5,3.2-.9,4.7-1.7l.7.4v1.3l-.7.8c-1.1.9-2.7,1.7-4.8,2.5-2.1.7-4.4,1.1-7,1.1s-4.8-.4-6.9-1.2c-2.1-.8-3.8-2-5.3-3.5s-2.7-3.3-3.5-5.4-1.2-4.4-1.2-7,.4-5,1.3-7.1,2-4,3.5-5.5,3.2-2.7,5.3-3.6c2-.9,4.2-1.3,6.5-1.3s2.6.2,4.2.5c1.5.3,3,1,4.4,1.9s2.7,2.2,3.8,3.9c1.1,1.7,1.9,3.9,2.3,6.6l-.5,1.8h-.2ZM377.2,58c-1.5,0-2.9.2-4.1.7s-2.3,1.1-3.2,1.9c-.9.8-1.7,1.8-2.3,2.8-.6,1.1-1,2.2-1.2,3.4h17.8c.6,0,1-.2,1.2-.5.2-.3.3-.6.3-1v-.8c0-.2-.1-.5-.2-.7-.5-1.8-1.5-3.3-2.9-4.3s-3.2-1.6-5.4-1.6h0Z"/>
  </g>
</svg>